Coordinates
version=1
nRows=17
nColumns=24
inDegrees=yes

Units are S.I. units (second, meters, Newtons, ...)
Angles are in degrees.

endheader
time	pelvis_tilt	pelvis_list	pelvis_rotation	pelvis_tx	pelvis_ty	pelvis_tz	hip_flexion_r	hip_adduction_r	hip_rotation_r	knee_angle_r	ankle_angle_r	subtalar_angle_r	mtp_angle_r	hip_flexion_l	hip_adduction_l	hip_rotation_l	knee_angle_l	ankle_angle_l	subtalar_angle_l	mtp_angle_l	lumbar_extension	lumbar_bending	lumbar_rotation
      1.28000000	     -8.19441288	      3.83591376	    355.29567729	     -0.71839419	      1.36949403	     -1.02142254	      1.57489757	      0.15934081	      4.84131715	    -17.00699082	     10.01177355	     -8.08659574	      6.70065799	     24.89545764	      3.78868402	     -7.36235286	      4.66564551	     -7.74736742	      6.97580673	     32.16158418	     -8.04325011	      1.32995335	     15.61374448
      1.28500000	     -8.16257557	      3.91705773	    355.22764332	     -0.71298229	      1.36894164	     -1.02167079	      1.26880772	      0.01113995	      4.79043230	    -17.11589566	     10.10870028	     -7.90259893	      6.80046301	     24.98204818	      3.87647550	     -6.98331828	      3.96526620	     -7.95157571	      5.92407750	     31.99310752	     -8.06161928	      1.18002334	     15.67572637
      1.29000000	     -8.20350354	      3.99830678	    355.20520516	     -0.70755233	      1.36831153	     -1.02196123	      1.05826633	     -0.13423633	      4.68290453	    -17.26658851	     10.20701635	     -7.66798220	      6.94868026	     25.15782527	      3.97642617	     -6.50664680	      3.23785789	     -8.24926951	      4.78105151	     31.94255634	     -8.00571131	      1.05278207	     15.59963401
      1.29500000	     -8.21563822	      4.09240256	    355.16061628	     -0.70213756	      1.36773482	     -1.02222697	      0.84019710	     -0.29507144	      4.58720256	    -17.45831885	     10.31193200	     -7.39934056	      7.08223120	     25.29128257	      4.08943997	     -6.07102028	      2.52714301	     -8.61845280	      3.63798570	     31.86136746	     -7.98230554	      0.89372538	     15.58938904
      1.30000000	     -8.25290725	      4.20056160	    355.10190709	     -0.69672110	      1.36717399	     -1.02247901	      0.68160353	     -0.46825618	      4.49834330	    -17.70138209	     10.39871678	     -7.11813571	      7.23381090	     25.44039793	      4.21467116	     -5.68093201	      1.84153387	     -9.07947067	      2.48829820	     31.74855822	     -7.93371925	      0.72564045	     15.58087381
      1.30500000	     -8.31280270	      4.30846613	    355.07975619	     -0.69130781	      1.36660316	     -1.02276486	      0.57138278	     -0.63701257	      4.39100291	    -17.99718400	     10.45656504	     -6.86367145	      7.38199607	     25.61203565	      4.35504088	     -5.22830555	      1.16693603	     -9.58888249	      1.32691149	     31.69225872	     -7.86523391	      0.55973184	     15.51079327
      1.31000000	     -8.37604986	      4.43128775	    355.05892231	     -0.68589101	      1.36607329	     -1.02304874	      0.49963835	     -0.81964842	      4.28934989	    -18.35787037	     10.49100192	     -6.61217891	      7.53498155	     25.77459460	      4.51428693	     -4.80003428	      0.52322561	    -10.14352661	      0.20911197	     31.67152166	     -7.79322952	      0.37397161	     15.44351412
      1.31500000	     -8.47392565	      4.55601126	    355.06373422	     -0.68048060	      1.36554605	     -1.02335551	      0.50217573	     -0.99740479	      4.19143413	    -18.78988062	     10.48393474	     -6.40684489	      7.71716845	     25.96930180	      4.68319788	     -4.33429697	     -0.10432574	    -10.71905767	     -0.87300833	     31.70570424	     -7.68471136	      0.18333913	     15.35632392
      1.32000000	     -8.57873968	      4.69276608	    355.06840382	     -0.67506043	      1.36507615	     -1.02366947	      0.55535067	     -1.18669838	      4.10060348	    -19.29794553	     10.41860579	     -6.21226121	      7.94214276	     26.15852536	      4.86723300	     -3.92137746	     -0.70488724	    -11.31845447	     -1.87981117	     31.73321574	     -7.56823295	     -0.01922683	     15.26200571
      1.32500000	     -8.66111195	      4.83254073	    355.08337008	     -0.66965743	      1.36467272	     -1.02400472	      0.62838189	     -1.38064062	      4.01051496	    -19.88417601	     10.29357361	     -6.04226189	      8.22754754	     26.31565874	      5.06343090	     -3.52005761	     -1.29163452	    -11.90187649	     -2.82124891	     31.76548900	     -7.48600155	     -0.22289027	     15.14768352
      1.33000000	     -8.77336935	      4.97716109	    355.08675802	     -0.66425570	      1.36431607	     -1.02434891	      0.79258396	     -1.57570071	      3.95548300	    -20.57222267	     10.09773716	     -5.88068656	      8.56139672	     26.49994663	      5.25743862	     -3.16833371	     -1.87605838	    -12.45338893	     -3.69492723	     31.75432899	     -7.37595919	     -0.41549617	     15.02700848
      1.33500000	     -8.85687101	      5.12297844	    355.13723277	     -0.65884009	      1.36403982	     -1.02474357	      0.95936838	     -1.77507866	      3.86666388	    -21.32417713	      9.82843802	     -5.78572910	      9.00810780	     26.65162639	      5.47747604	     -2.78110857	     -2.46641292	    -12.96913745	     -4.50668149	     31.76233954	     -7.29542742	     -0.62821399	     14.88169771
      1.34000000	     -8.96054071	      5.26862892	    355.19818602	     -0.65341133	      1.36380927	     -1.02518482	      1.20448180	     -1.97513870	      3.78194908	    -22.17291454	      9.45396022	     -5.74032748	      9.59130982	     26.82430627	      5.70110281	     -2.39185947	     -3.06829424	    -13.41269488	     -5.24909994	     31.73813258	     -7.19254400	     -0.83147443	     14.73860639
      1.34500000	     -9.02774533	      5.41445314	    355.25625162	     -0.64799831	      1.36367454	     -1.02565101	      1.46767307	     -2.18225803	      3.70140449	    -23.11944311	      9.02001662	     -5.66508888	     10.22251921	     26.95790235	      5.93038159	     -2.04294132	     -3.68360560	    -13.77944136	     -5.93587999	     31.62157977	     -7.13862036	     -1.02795356	     14.58512353
      1.35000000	     -9.08507823	      5.55194885	    355.31987051	     -0.64257043	      1.36363418	     -1.02612103	      1.77164118	     -2.38008396	      3.63654234	    -24.13885800	      8.41568524	     -5.70303062	     11.13925063	     27.08085787	      6.15339013	     -1.73112531	     -4.31589415	    -14.05951436	     -6.50168614	     31.45697124	     -7.09708332	     -1.21151952	     14.40348714
      1.35500000	     -9.13117871	      5.68842499	    355.40684945	     -0.63714474	      1.36364327	     -1.02668880	      2.12242220	     -2.59303162	      3.51912982	    -25.27098664	      7.86018776	     -5.56586915	     11.81101774	     27.20144929	      6.39552772	     -1.37206415	     -4.98249744	    -14.25042389	     -7.11966477	     31.16197634	     -7.06428976	     -1.39578936	     14.25913311
      1.36000000	     -9.16348260	      5.81863624	    355.49029636	     -0.63174126	      1.36372849	     -1.02724457	      2.51741046	     -2.79689865	      3.43354738	    -26.48003294	      7.12083319	     -5.61736024	     12.86595061	     27.31347177	      6.62904172	     -1.06080335	     -5.67520678	    -14.32696650	     -7.57417284	     30.78124373	     -7.05932427	     -1.56185172	     14.07675536
